@startuml
class Eco
class Sonido
class Superficie
class FuenteSonido
class Oido
class Distancia
class Objeto
class VelocidadSonido
class Tiempo

Eco -- Sonido
Eco -- Superficie
Sonido -- FuenteSonido
Sonido -- Oido
Sonido -- Superficie : "rebota"
Distancia -- Superficie
Objeto -- Superficie
Distancia -- VelocidadSonido
Distancia -- Tiempo
@enduml